<?xml version="1.0" encoding="UTF-8"?>
<svg version="1.1" xmlns="http://www.w3.org/2000/svg" width="204" height="192">
<path d="M0 0 C67.32 0 134.64 0 204 0 C204 63.36 204 126.72 204 192 C136.68 192 69.36 192 0 192 C0 128.64 0 65.28 0 0 Z " fill="#F9FBFA" transform="translate(0,0)"/>
<path d="M0 0 C0.88134109 -0.01283524 1.76268219 -0.02567047 2.67073059 -0.03889465 C3.62074448 -0.04628159 4.57075836 -0.05366852 5.54956055 -0.0612793 C7.02008125 -0.07338692 7.02008125 -0.07338692 8.52030945 -0.08573914 C10.5957157 -0.09957085 12.6711446 -0.11029708 14.74658203 -0.11816406 C17.91377037 -0.13537573 21.07991445 -0.17927028 24.24682617 -0.22338867 C26.26439663 -0.23351604 28.28197595 -0.24203201 30.29956055 -0.2487793 C31.71547234 -0.27504143 31.71547234 -0.27504143 33.1599884 -0.30183411 C38.78355033 -0.28336514 42.3116611 0.19368639 46.6237793 4.17700195 C50.12111599 9.19481888 50.13424335 14.05020582 50.19799805 19.95825195 C50.21272659 20.88996216 50.22745514 21.82167236 50.24263 22.78161621 C50.26650371 24.74487157 50.28197823 26.70824495 50.28955078 28.67163086 C50.31122125 31.66897321 50.39151256 34.66124754 50.47338867 37.6574707 C50.48937885 39.57020428 50.50186618 41.48297102 50.51049805 43.39575195 C50.54237717 44.28653442 50.57425629 45.17731689 50.60710144 46.09509277 C50.56639092 49.86656231 50.47695104 52.22020555 47.90591431 55.10351562 C44.54263483 57.74069799 42.43307122 59.0902921 38.1237793 59.55200195 C32.78846708 60.50473628 30.01987648 64.12653483 26.6237793 68.17700195 C26.2937793 68.83700195 25.9637793 69.49700195 25.6237793 70.17700195 C24.9637793 70.17700195 24.3037793 70.17700195 23.6237793 70.17700195 C24.2233391 66.49399172 24.88243115 62.83390417 25.6237793 59.17700195 C24.66076904 59.21889648 23.69775879 59.26079102 22.70556641 59.30395508 C19.10738411 59.44956219 15.5094572 59.54087457 11.90917969 59.61645508 C10.35599891 59.65650799 8.80311644 59.71097226 7.25097656 59.78051758 C-7.26538034 60.41429753 -7.26538034 60.41429753 -11.89575195 56.43481445 C-16.27665487 49.88124503 -15.25438185 40.9395126 -15.0690918 33.38598633 C-15.00122929 30.55236048 -14.98708918 27.72230609 -14.98168945 24.88793945 C-14.96269105 23.07540386 -14.9406593 21.26289698 -14.9152832 19.45043945 C-14.90880768 18.60967865 -14.90233215 17.76891785 -14.8956604 16.90267944 C-14.75616007 11.9470574 -14.08121039 8.4839033 -11.3762207 4.17700195 C-7.84456181 0.97643608 -4.69809969 0.05970233 0 0 Z " fill="#070707" transform="translate(84.376220703125,32.822998046875)"/>
<path d="M0 0 C1.010625 0.28875 2.02125 0.5775 3.0625 0.875 C3.0625 1.535 3.0625 2.195 3.0625 2.875 C3.619375 2.359375 4.17625 1.84375 4.75 1.3125 C7.0625 -0.125 7.0625 -0.125 9.6875 0.125 C12.0625 0.875 12.0625 0.875 14.0625 1.875 C14.0625 2.535 14.0625 3.195 14.0625 3.875 C14.59875 3.359375 15.135 2.84375 15.6875 2.3125 C18.0625 0.875 18.0625 0.875 21.25 1.125 C24.0625 1.875 24.0625 1.875 25.0625 2.875 C25.40234375 5.66015625 25.40234375 5.66015625 25.0625 8.875 C23.19140625 11.18359375 23.19140625 11.18359375 20.625 13.3125 C19.72007812 14.075625 18.81515625 14.83875 17.8828125 15.625 C14.54853782 18.28503077 11.20055156 20.91999858 7.77734375 23.46484375 C5.94013127 24.78074128 5.94013127 24.78074128 5.0625 26.875 C8.74877926 23.89841562 12.40809247 20.89059079 16.0625 17.875 C16.94164062 17.17117187 17.82078125 16.46734375 18.7265625 15.7421875 C23.52945786 11.75281187 26.1477448 9.14760709 27.0625 2.875 C29.4375 2.75 29.4375 2.75 32.0625 2.875 C34.0625 4.875 34.0625 4.875 34.6015625 7.6171875 C33.80798418 12.41316084 31.13196738 14.07660285 27.4375 17 C26.06238916 18.13658466 24.68739191 19.27330677 23.3125 20.41015625 C22.60738281 20.98266113 21.90226562 21.55516602 21.17578125 22.14501953 C17.87561627 24.84661022 14.66132598 27.64572419 11.4375 30.4375 C9.32087092 32.26043701 7.19494982 34.07040745 5.0625 35.875 C4.21558594 36.638125 3.36867188 37.40125 2.49609375 38.1875 C-1.71029907 41.10429245 -6.01477198 40.45703195 -10.9375 39.875 C-12.8100461 39.24023861 -14.68526815 38.59857764 -16.49609375 37.8046875 C-19.98450144 36.47630185 -23.56437375 35.63280041 -27.1875 34.75 C-27.88576904 34.57952148 -28.58403809 34.40904297 -29.3034668 34.23339844 C-31.1808307 33.7779232 -33.05912739 33.32629732 -34.9375 32.875 C-35.89910034 32.60695557 -35.89910034 32.60695557 -36.88012695 32.33349609 C-47.48422237 29.97031926 -60.19786678 31.28738743 -70.5390625 34.21875 C-72.9375 34.875 -72.9375 34.875 -75.9375 34.875 C-77.86674153 26.43456831 -78.10882762 18.52704484 -77.9375 9.875 C-64.5725 8.885 -64.5725 8.885 -50.9375 7.875 C-50.9375 7.215 -50.9375 6.555 -50.9375 5.875 C-45.45823676 2.3208833 -40.25906704 2.21453777 -33.9375 2.875 C-31.59854118 3.52165332 -29.26563478 4.19039986 -26.9375 4.875 C-24.13636883 5.48139617 -21.32082056 5.99416209 -18.5 6.5 C-17.40268555 6.70109375 -17.40268555 6.70109375 -16.28320312 6.90625 C-14.50186303 7.23224688 -12.71975902 7.554065 -10.9375 7.875 C-10.9375 7.215 -10.9375 6.555 -10.9375 5.875 C-7.64611121 1.92333261 -5.24246744 -0.16642754 0 0 Z " fill="#060606" transform="translate(123.9375,103.125)"/>
<path d="M0 0 C1.010625 0.28875 2.02125 0.5775 3.0625 0.875 C3.0625 1.535 3.0625 2.195 3.0625 2.875 C3.619375 2.359375 4.17625 1.84375 4.75 1.3125 C7.0625 -0.125 7.0625 -0.125 9.625 0 C12.1752402 0.91547084 13.3549841 1.80800707 15.0625 3.875 C8.63258696 10.66213043 8.63258696 10.66213043 2.85546875 11.140625 C-9.1265411 11.08869863 -9.1265411 11.08869863 -14.9375 8.875 C-13.6175 8.545 -12.2975 8.215 -10.9375 7.875 C-10.9375 7.215 -10.9375 6.555 -10.9375 5.875 C-7.64611121 1.92333261 -5.24246744 -0.16642754 0 0 Z " fill="#ADADAD" transform="translate(123.9375,103.125)"/>
<path d="M0 0 C2.6875 0.3125 2.6875 0.3125 5 1 C5.33 2.32 5.66 3.64 6 5 C4.44424022 5.84584998 2.8800388 6.67618399 1.3125 7.5 C0.00732422 8.19609375 0.00732422 8.19609375 -1.32421875 8.90625 C-4.11788829 10.04818792 -6.01629113 10.21504208 -9 10 C-8.06409496 8.8944811 -7.12620142 7.79064547 -6.1875 6.6875 C-5.66542969 6.07261719 -5.14335938 5.45773438 -4.60546875 4.82421875 C-4.07566406 4.22222656 -3.54585938 3.62023437 -3 3 C-2.4946875 2.4225 -1.989375 1.845 -1.46875 1.25 C-0.9840625 0.8375 -0.499375 0.425 0 0 Z " fill="#101010" transform="translate(131,103)"/>
<path d="M0 0 C0.7425 0.0825 1.485 0.165 2.25 0.25 C2.58 1.57 2.91 2.89 3.25 4.25 C-0.44948187 7.86139896 -0.44948187 7.86139896 -2.75 9.25 C-6.125 9.0625 -6.125 9.0625 -8.75 8.25 C-6.92599593 3.9939905 -4.88604345 0.44418577 0 0 Z " fill="#0F0F0F" transform="translate(122.75,102.75)"/>
<path d="M0 0 C3 0.125 3 0.125 4 1.125 C4.04080783 3.12458364 4.04254356 5.12545254 4 7.125 C1.6875 8.25 1.6875 8.25 -1 9.125 C-1.99 8.465 -2.98 7.805 -4 7.125 C-4.25 4.0625 -4.25 4.0625 -4 1.125 C-3 0.125 -3 0.125 0 0 Z " fill="#E4E4E4" transform="translate(102,58.875)"/>
<path d="M0 0 C3 0.125 3 0.125 4 1.125 C4.04080783 3.12458364 4.04254356 5.12545254 4 7.125 C1.6739143 7.50563221 -0.66055264 7.83769945 -3 8.125 C-4 7.125 -4 7.125 -4.125 4.125 C-3.96 0.165 -3.96 0.165 0 0 Z " fill="#E9E9E9" transform="translate(88,58.875)"/>
<path d="M0 0 C3 0.125 3 0.125 4 1.125 C4.125 4.125 4.125 4.125 4 7.125 C3 8.125 3 8.125 0.5625 8.3125 C-2 8.125 -2 8.125 -4 6.125 C-4.1875 3.5625 -4.1875 3.5625 -4 1.125 C-3 0.125 -3 0.125 0 0 Z " fill="#EBEBEB" transform="translate(116,58.875)"/>
<path d="M0 0 C0.66 0 1.32 0 2 0 C1.82643175 4.0160102 1.09571804 6.26504101 -1.73046875 9.03515625 C-2.8701131 10.05859121 -4.0229817 11.06745956 -5.1875 12.0625 C-5.75275391 12.56587891 -6.31800781 13.06925781 -6.90039062 13.58789062 C-8.58397664 15.078626 -10.2888755 16.5410204 -12 18 C-12.55896973 18.48968262 -13.11793945 18.97936523 -13.69384766 19.48388672 C-17.76689546 23 -17.76689546 23 -20 23 C-18.50982656 19.2951489 -16.46002359 17.5254085 -13.3125 15.125 C-11.97832031 14.08279297 -11.97832031 14.08279297 -10.6171875 13.01953125 C-9.01922123 11.78647369 -7.42046228 10.55444143 -5.8203125 9.32421875 C-2.07368448 6.3664936 -2.07368448 6.3664936 -0.0625 2.125 C-0.041875 1.42375 -0.02125 0.7225 0 0 Z " fill="#B4B4B4" transform="translate(149,107)"/>
<path d="M0 0 C0.66 0.33 1.32 0.66 2 1 C-0.64 3.64 -3.28 6.28 -6 9 C-6.99 8.67 -7.98 8.34 -9 8 C-6.03 5.36 -3.06 2.72 0 0 Z " fill="#CFCFCF" transform="translate(147,122)"/>
<path d="M0 0 C0.66 0.99 1.32 1.98 2 3 C0.35 4.65 -1.3 6.3 -3 8 C-3.99 7.67 -4.98 7.34 -6 7 C-5.195625 6.401875 -4.39125 5.80375 -3.5625 5.1875 C-0.77672016 3.19052724 -0.77672016 3.19052724 0 0 Z " fill="#AAAAAA" transform="translate(126,104)"/>
</svg>
